<svg width="401" height="364" viewBox="0 0 401 364" fill="none" xmlns="http://www.w3.org/2000/svg">
<g clip-path="url(#clip0_101_9)">
<path d="M200.016 22.9892C182.348 22.9892 14.5088 313.696 23.3426 328.996H23.336C32.1886 344.296 367.855 344.296 376.689 328.996C385.524 313.697 217.683 22.9892 200.016 22.9892Z" stroke="#FF0000" stroke-width="27.344"/>
<path d="M233.458 132.548C231.714 140.65 229.832 154.97 227.812 175.509C225.793 196.048 224.783 211.875 224.783 222.99C224.783 227.889 225.254 232.081 226.196 235.566C227.138 239.05 228.147 242.584 229.222 246.166C229.222 248.426 229.156 249.651 229.025 249.84C227.946 250.783 224.381 251.255 218.331 251.255C212.949 251.255 208.175 250.547 204.006 249.133C199.838 247.719 196.139 245.6 192.909 242.776C185.779 242.776 180.466 232.035 176.969 210.553C175.894 203.394 174.886 192.656 173.946 178.338C173.946 170.799 174.215 164.91 174.753 160.669C175.29 156.428 175.76 152.801 176.162 149.788C176.162 147.902 175.424 145.643 173.946 143.009C172.333 141.876 171.122 140.838 170.313 139.895C167.892 136.693 166.681 132.547 166.681 127.458C166.279 123.882 166.683 121.245 167.894 119.549C169.909 116.536 174.145 115.029 180.602 115.029C182.35 113.523 186.319 112.108 192.509 110.786C193.449 110.596 194.793 110.314 196.542 109.94C204.747 109.941 212.615 111.729 220.147 115.305C229.427 119.831 233.865 125.579 233.458 132.548ZM232.251 289.978C232.251 296.194 231.847 300.058 231.038 301.57C229.561 302.508 228.35 303.353 227.406 304.106C224.853 306.182 222.298 308.821 219.741 312.024L203.807 315.129C192.507 315.129 184.302 311.739 179.192 304.96C175.559 300.061 173.743 294.124 173.743 287.149C173.608 285.269 173.54 283.952 173.54 283.199C173.54 276.603 175.223 271.704 178.589 268.502C182.488 264.73 189.48 261.904 199.565 260.024C201.72 259.644 203.134 259.454 203.807 259.454C207.033 259.454 210.193 260.679 213.288 263.129C215.303 264.635 218.396 267.933 222.567 273.022C224.853 275.092 227.139 277.07 229.425 278.956C231.309 281.785 232.251 285.459 232.251 289.978Z" fill="#FF0000"/>
</g>
<defs>
<clipPath id="clip0_101_9">
<rect width="400.13" height="363.48" fill="white"/>
</clipPath>
</defs>
</svg>
